# xmcd
#
# Track frame offsets: 
#        150
#        13108
#        26541
#        40165
#        54169
#        55605
#        69650
#        89350
#        107275
#        125857
#        148306
#        163250
#        182228
#        190805
#        204783
#        218251
#        231268
#
# Disc length: 3233 seconds
#
# Revision: 1
# Processed by: cddbd v1.5.2PL0 Copyright (c) Steve Scherf et al.
# Submitted via: ExactAudioCopy v1.0b3
#
DISCID=e80c9f11
DTITLE=Various Artist - Bebop CD023  Charlie Parker 1944-45
DYEAR=1944
DGENRE=Jazz
TTITLE0=Tiny Grimes Quintet - Tiny's Tempo
TTITLE1=Tiny Grimes Quintet - I'll Always Love You Just The Same
TTITLE2=Tiny Grimes Quintet - Romance Without Finance
TTITLE3=Tiny Grimes Quintet - Red Cross
TTITLE4=Cootie Williams and His Orchestra - 'Round Midnight
TTITLE5=Cootie Williams and His Orchestra - Seven Eleven
TTITLE6=Cootie Williams and His Orchestra - Do Nothin' Till You Hear F
TTITLE6=rom Me
TTITLE7=Cootie Williams and His Orchestra - Don't Blame Me
TTITLE8=Cootie Williams and His Orchestra - Perdido
TTITLE9=Cootie Williams and His Orchestra - Let's Have A Night Cap
TTITLE10=Cootie Williams and His Orchestra - Saturday Night
TTITLE11=Cootie Williams and His Orchestra - FLoogie Boo
TTITLE12=Cootie Williams and His Orchestra - St. Louis Blues
TTITLE13=Sir Charles Thompson and His All Stars - Takin's Off
TTITLE14=Sir Charles Thompson and His All Stars - If I Had You
TTITLE15=Sir Charles Thompson and His All Stars - 20th Century blues
TTITLE16=Sir Charles Thompson and His All Stars - The Street Beat
EXTD=YEAR: 2008
EXTT0=
EXTT1=
EXTT2=
EXTT3=
EXTT4=
EXTT5=
EXTT6=
EXTT7=
EXTT8=
EXTT9=
EXTT10=
EXTT11=
EXTT12=
EXTT13=
EXTT14=
EXTT15=
EXTT16=
PLAYORDER=
